<svg width="20" height="20" viewBox="0 0 20 20" fill="none" xmlns="http://www.w3.org/2000/svg">
<g clip-path="url(#clip0_775_4133)">
<path d="M10.7831 10.0002L15.3887 5.39466C15.4797 5.28838 15.5272 5.15167 15.5218 5.01185C15.5164 4.87203 15.4585 4.7394 15.3595 4.64045C15.2606 4.54151 15.128 4.48355 14.9881 4.47815C14.8483 4.47275 14.7116 4.52031 14.6053 4.61132L9.99977 9.21688L5.39421 4.60577C5.2896 4.50115 5.14771 4.44238 4.99977 4.44238C4.85182 4.44238 4.70994 4.50115 4.60532 4.60577C4.50071 4.71038 4.44194 4.85227 4.44194 5.00021C4.44194 5.14816 4.50071 5.29004 4.60532 5.39466L9.21643 10.0002L4.60532 14.6058C4.54717 14.6556 4.49993 14.7169 4.46659 14.7858C4.43324 14.8547 4.4145 14.9298 4.41155 15.0063C4.40859 15.0828 4.42148 15.1591 4.44941 15.2304C4.47734 15.3017 4.51971 15.3664 4.57385 15.4206C4.62799 15.4747 4.69274 15.5171 4.76403 15.545C4.83532 15.5729 4.91162 15.5858 4.98813 15.5829C5.06464 15.5799 5.13972 15.5612 5.20864 15.5278C5.27757 15.4945 5.33885 15.4473 5.38866 15.3891L9.99977 10.7835L14.6053 15.3891C14.7116 15.4801 14.8483 15.5277 14.9881 15.5223C15.128 15.5169 15.2606 15.4589 15.3595 15.36C15.4585 15.261 15.5164 15.1284 15.5218 14.9886C15.5272 14.8488 15.4797 14.712 15.3887 14.6058L10.7831 10.0002Z" fill="#222927"/>
</g>
<defs>
<clipPath id="clip0_775_4133">
<rect width="20" height="20" fill="white"/>
</clipPath>
</defs>
</svg>
