<svg width="53" height="32" viewBox="0 0 53 32" fill="none" xmlns="http://www.w3.org/2000/svg">
<path d="M0.438477 30.0753H3.66785C6.80172 30.0753 9.92962 28.5094 9.92962 25.5448C9.92962 23.8713 9.11183 22.6938 5.88245 20.3329C2.36058 17.727 0.725002 16.3523 0.98765 13.3101H3.50071C3.20822 15.7008 4.21703 16.6033 7.48222 18.9642C10.7474 21.3789 12.3114 23.1062 12.3114 25.5209C12.3114 29.2804 8.85515 31.8863 3.76336 31.8863H1.22045L0.438477 30.0753Z" fill="black"/>
<path d="M13.0332 0.824219H15.3851L25.1329 26.4951L26.2313 29.1488L28.0877 24.0326L36.3671 0.824219H36.779L25.6522 31.8922H24.8524L13.0332 0.824219Z" fill="black"/>
<path d="M36.7731 31.8864H34.4212L24.6734 6.21551L23.575 3.56176L21.7186 8.678L13.4392 31.8864H13.0273L24.1541 0.818359H24.954L36.7671 31.8864H36.7731Z" fill="black"/>
<path d="M43.0113 24.8875L35.3945 13.3042H37.639L43.9963 22.9091L50.3535 13.3042H52.5741L44.9275 24.9413V31.8864H43.0113V24.8875Z" fill="black"/>
</svg>
